<svg width="393" height="120" viewBox="0 0 393 120" fill="none" xmlns="http://www.w3.org/2000/svg">
<path d="M155.398 83.3287C154.51 83.3278 153.875 83.1951 153.491 82.9307C153.131 82.6663 152.903 82.318 152.808 81.8859C152.712 81.4538 152.665 81.0098 152.665 80.5538L152.687 60.8978C152.687 60.4418 152.736 60.0098 152.832 59.6019C152.929 59.17 153.169 58.8223 153.553 58.5587C153.938 58.2951 154.574 58.1638 155.462 58.1648L162.842 58.1728C163.85 58.1739 164.857 58.355 165.865 58.7161C166.897 59.0772 167.844 59.6422 168.707 60.4112C169.594 61.1561 170.301 62.0809 170.828 63.1855C171.379 64.2901 171.654 65.5864 171.652 67.0744C171.65 68.5384 171.373 69.8221 170.82 70.9255C170.291 72.0289 169.582 72.9521 168.693 73.6952C167.828 74.4142 166.879 74.9652 165.847 75.3481C164.815 75.7069 163.794 75.8858 162.786 75.8847L158.178 75.8798L158.173 80.5957C158.173 81.0517 158.124 81.4957 158.028 81.9276C157.931 82.3355 157.691 82.6712 157.307 82.9348C156.923 83.1984 156.286 83.3297 155.398 83.3287ZM158.184 70.4078L162.828 70.4128C163.356 70.4134 163.872 70.3059 164.377 70.0905C164.905 69.851 165.337 69.4795 165.674 68.9759C166.034 68.4723 166.215 67.8245 166.216 67.0325C166.217 66.3605 166.073 65.7723 165.786 65.268C165.499 64.7637 165.091 64.3672 164.563 64.0787C164.06 63.7901 163.472 63.6455 162.8 63.6448L158.192 63.6398L158.184 70.4078ZM182.89 83.6826C181.21 83.6807 179.759 83.4032 178.535 82.8498C177.336 82.2965 176.353 81.5755 175.586 80.6866C174.819 79.7738 174.244 78.7652 173.861 77.6608C173.502 76.5564 173.323 75.4522 173.325 74.3482C173.327 72.5482 173.736 70.9526 174.554 69.5615C175.371 68.1704 176.5 67.0796 177.941 66.2892C179.382 65.4747 181.039 65.0685 182.911 65.0706C184.303 65.0721 185.502 65.3014 186.51 65.7585C187.541 66.1916 188.381 66.7685 189.028 67.4892C189.699 68.1859 190.19 68.9425 190.502 69.7588C190.837 70.5752 191.004 71.3553 191.003 72.0993C191.002 73.4193 190.677 74.403 190.028 75.0503C189.403 75.6736 188.599 75.9847 187.615 75.9837L179.047 75.9744C179.094 76.5984 179.31 77.1267 179.693 77.5591C180.101 77.9915 180.604 78.3281 181.204 78.5687C181.804 78.8094 182.44 78.9301 183.112 78.9308C183.688 78.9314 184.192 78.908 184.624 78.8604C185.056 78.7889 185.428 78.7053 185.74 78.6096C186.052 78.49 186.34 78.3823 186.604 78.2866C186.868 78.1669 187.097 78.0711 187.289 77.9993C187.505 77.9276 187.709 77.8798 187.901 77.856C188.261 77.8324 188.585 77.9407 188.872 78.181C189.184 78.3974 189.46 78.7337 189.699 79.1899C189.867 79.4541 189.975 79.7062 190.023 79.9463C190.094 80.1864 190.13 80.4264 190.13 80.6664C190.129 81.2424 189.829 81.7581 189.228 82.2134C188.652 82.6688 187.823 83.0279 186.743 83.2907C185.687 83.5536 184.402 83.6842 182.89 83.6826ZM179.05 73.0224L184.738 73.0286C185.122 73.029 185.398 72.9693 185.566 72.8494C185.758 72.7057 185.855 72.4418 185.855 72.0578C185.856 71.6258 185.724 71.2536 185.46 70.9413C185.197 70.605 184.837 70.3527 184.381 70.1842C183.949 69.9917 183.445 69.8951 182.869 69.8945C182.125 69.8937 181.465 70.037 180.889 70.3244C180.313 70.6118 179.856 70.9953 179.52 71.4749C179.207 71.9546 179.051 72.4704 179.05 73.0224ZM195.999 83.3728C195.111 83.3718 194.475 83.2511 194.091 83.0107C193.731 82.7463 193.504 82.3981 193.408 81.966C193.337 81.5339 193.301 81.0898 193.302 80.6338L193.315 68.0698C193.316 67.5898 193.364 67.1459 193.461 66.738C193.557 66.3301 193.786 66.0064 194.146 65.7667C194.53 65.5032 195.166 65.3719 196.054 65.3728C196.894 65.3737 197.494 65.4944 197.854 65.7348C198.238 65.9512 198.477 66.2154 198.573 66.5275C198.669 66.8157 198.716 67.0677 198.716 67.2837L198.284 67.4992C198.332 67.4033 198.452 67.2354 198.645 66.9956C198.861 66.7319 199.149 66.4682 199.509 66.2046C199.87 65.917 200.302 65.6774 200.806 65.486C201.334 65.2945 201.934 65.1992 202.606 65.1999C202.87 65.2002 203.158 65.2245 203.47 65.2729C203.806 65.2972 204.142 65.3696 204.478 65.49C204.838 65.5863 205.162 65.7307 205.45 65.923C205.737 66.0913 205.965 66.3076 206.133 66.5717C206.325 66.836 206.42 67.1601 206.42 67.5441C206.419 68.5281 206.19 69.3678 205.733 70.0633C205.276 70.7348 204.7 71.0702 204.004 71.0694C203.596 71.069 203.308 71.0327 203.14 70.9605C202.972 70.8883 202.828 70.8162 202.708 70.744C202.613 70.6719 202.493 70.6118 202.349 70.5636C202.205 70.4915 201.941 70.4552 201.557 70.4548C201.197 70.4544 200.849 70.502 200.513 70.5977C200.201 70.6933 199.9 70.849 199.612 71.0647C199.348 71.2564 199.132 71.5082 198.963 71.82C198.819 72.1078 198.747 72.4317 198.746 72.7917L198.738 80.7117C198.737 81.1677 198.689 81.6117 198.592 82.0436C198.52 82.4515 198.291 82.7753 197.907 83.0148C197.523 83.2544 196.887 83.3737 195.999 83.3728ZM214.192 83.6805C213.544 83.6798 212.837 83.607 212.069 83.4622C211.325 83.3174 210.593 83.1126 209.873 82.8478C209.154 82.559 208.554 82.2344 208.074 81.8739C207.595 81.4893 207.319 81.057 207.248 80.577C207.2 80.3369 207.2 80.0849 207.249 79.821C207.321 79.533 207.441 79.2452 207.61 78.9574C207.778 78.6455 207.982 78.3218 208.223 77.986C208.415 77.7222 208.631 77.5545 208.871 77.4827C209.111 77.411 209.387 77.4233 209.699 77.5196C210.083 77.592 210.467 77.7245 210.851 77.9169C211.259 78.0853 211.654 78.2777 212.038 78.4942C212.446 78.6866 212.866 78.8671 213.298 79.0355C213.729 79.18 214.173 79.2525 214.629 79.253C215.301 79.2537 215.817 79.1583 216.178 78.9666C216.562 78.7511 216.754 78.4633 216.755 78.1033C216.755 77.8393 216.671 77.6232 216.503 77.455C216.359 77.2868 216.144 77.1426 215.856 77.0223C215.592 76.878 215.28 76.7577 214.92 76.6613C214.56 76.5649 214.164 76.4685 213.732 76.372C213.325 76.2516 212.905 76.1311 212.473 76.0106C211.873 75.842 211.297 75.6254 210.746 75.3608C210.194 75.0962 209.69 74.7596 209.235 74.3511C208.779 73.9186 208.42 73.4022 208.156 72.8019C207.893 72.1777 207.762 71.4215 207.763 70.5335C207.764 69.3575 208.041 68.3738 208.594 67.5824C209.147 66.791 209.951 66.1919 211.008 65.785C212.064 65.3542 213.349 65.1396 214.861 65.1412C215.293 65.1417 215.725 65.1661 216.157 65.2146C216.588 65.2631 217.008 65.3475 217.416 65.468C217.848 65.5885 218.268 65.7329 218.676 65.9013C219.084 66.0698 219.491 66.2742 219.899 66.5147C220.619 66.8515 220.99 67.3079 221.014 67.8839C221.037 68.4599 220.832 69.0477 220.4 69.6472C220.135 70.0549 219.859 70.3546 219.571 70.5463C219.283 70.714 218.983 70.7617 218.671 70.6893C218.287 70.5929 217.867 70.4365 217.411 70.22C216.979 70.0035 216.512 69.799 216.008 69.6065C215.528 69.4139 215.048 69.3174 214.568 69.3169C214.16 69.3165 213.812 69.3761 213.524 69.4958C213.236 69.5915 213.02 69.7352 212.875 69.9271C212.731 70.0949 212.659 70.2988 212.659 70.5388C212.658 70.8508 212.742 71.1029 212.91 71.2951C213.102 71.4633 213.354 71.6076 213.665 71.7279C213.977 71.8483 214.337 71.9566 214.745 72.0531C215.153 72.1495 215.597 72.246 216.077 72.3425C216.725 72.4632 217.384 72.632 218.056 72.8487C218.752 73.0414 219.376 73.3301 219.927 73.7147C220.503 74.0993 220.958 74.6158 221.294 75.2642C221.653 75.9126 221.832 76.7648 221.831 77.8208C221.829 79.7168 221.167 81.1681 219.846 82.1746C218.525 83.1812 216.64 83.6832 214.192 83.6805ZM232.841 83.7007C231.713 83.6995 230.585 83.4823 229.457 83.0491C228.354 82.5919 227.347 81.9548 226.436 81.1378C225.524 80.3208 224.805 79.348 224.279 78.2194C223.752 77.0669 223.489 75.7946 223.491 74.4026C223.492 73.1066 223.734 71.9068 224.215 70.8034C224.696 69.6759 225.369 68.6806 226.234 67.8175C227.099 66.9545 228.084 66.2836 229.188 65.8047C230.317 65.302 231.517 65.0513 232.789 65.0527C234.517 65.0545 236.077 65.4762 237.468 66.3177C238.883 67.1353 240.01 68.2525 240.848 69.6694C241.686 71.0863 242.105 72.6588 242.103 74.3868C242.101 75.8508 241.824 77.1585 241.271 78.3099C240.741 79.4373 240.02 80.4085 239.107 81.2235C238.219 82.0386 237.222 82.6615 236.117 83.0923C235.037 83.4991 233.945 83.7019 232.841 83.7007ZM232.775 78.2646C233.351 78.2653 233.939 78.1219 234.539 77.8346C235.139 77.5472 235.644 77.1158 236.053 76.5402C236.461 75.9646 236.666 75.2329 236.667 74.3449C236.668 73.5769 236.5 72.9047 236.165 72.3283C235.83 71.752 235.362 71.3074 234.763 70.9948C234.187 70.6582 233.515 70.4894 232.747 70.4886C232.027 70.4878 231.379 70.6551 230.803 70.9905C230.25 71.3259 229.794 71.7934 229.433 72.393C229.096 72.9687 228.928 73.6285 228.927 74.3725C228.926 75.2365 229.117 75.9687 229.5 76.5691C229.908 77.1455 230.411 77.5781 231.011 77.8667C231.611 78.1314 232.199 78.264 232.775 78.2646ZM247.01 83.3921C246.122 83.3911 245.487 83.2704 245.103 83.03C244.743 82.7656 244.516 82.4294 244.42 82.0213C244.348 81.5892 244.313 81.1452 244.313 80.6892L244.327 68.0172C244.328 67.5612 244.376 67.1412 244.473 66.7573C244.569 66.3494 244.797 66.0257 245.158 65.7861C245.542 65.5465 246.178 65.4272 247.066 65.4281C247.834 65.429 248.398 65.5376 248.758 65.754C249.117 65.9464 249.345 66.1866 249.441 66.4747C249.561 66.7628 249.62 67.0389 249.62 67.3029C249.62 67.5429 249.643 67.7109 249.691 67.807L249.475 68.4907C249.523 68.1308 249.703 67.771 250.016 67.4113C250.352 67.0277 250.761 66.6921 251.241 66.4047C251.745 66.0932 252.274 65.8538 252.826 65.6864C253.402 65.519 253.966 65.4356 254.518 65.4362C255.67 65.4375 256.69 65.6546 257.577 66.0875C258.489 66.4965 259.256 67.0974 259.879 67.89C260.502 68.6827 260.969 69.6192 261.28 70.6996C261.615 71.7559 261.782 72.9201 261.78 74.1921L261.773 80.7441C261.773 81.2001 261.724 81.644 261.628 82.0759C261.555 82.4839 261.327 82.8076 260.943 83.0472C260.583 83.2868 259.958 83.4061 259.07 83.4052C258.158 83.4042 257.511 83.2835 257.127 83.0431C256.767 82.7787 256.54 82.4424 256.444 82.0343C256.348 81.6022 256.301 81.1582 256.301 80.7022L256.308 74.1862C256.309 73.4662 256.19 72.854 255.95 72.3498C255.711 71.8455 255.351 71.4611 254.872 71.1966C254.392 70.9081 253.804 70.7634 253.108 70.7627C252.412 70.7619 251.812 70.9053 251.308 71.1927C250.803 71.4802 250.407 71.8758 250.118 72.3794C249.854 72.8832 249.721 73.483 249.72 74.179L249.713 80.731C249.713 81.187 249.664 81.631 249.568 82.0629C249.495 82.4708 249.267 82.7945 248.883 83.0341C248.523 83.2737 247.898 83.393 247.01 83.3921ZM279.284 83.4271C278.396 83.4261 277.736 83.2694 277.304 82.9569C276.896 82.6445 276.693 82.2603 276.693 81.8043L277.054 81.1927C276.91 81.4325 276.633 81.7322 276.225 82.0918C275.817 82.4273 275.288 82.7388 274.64 83.026C273.992 83.2893 273.188 83.4205 272.228 83.4194C271.124 83.4182 270.068 83.1771 269.06 82.696C268.077 82.2149 267.202 81.554 266.435 80.7131C265.667 79.8483 265.057 78.8757 264.602 77.7952C264.171 76.7147 263.956 75.5745 263.957 74.3745C263.959 73.1985 264.176 72.0827 264.609 71.0272C265.066 69.9477 265.679 69.0003 266.448 68.1852C267.241 67.346 268.13 66.687 269.114 66.208C270.099 65.7291 271.143 65.4902 272.247 65.4914C273.135 65.4924 273.891 65.6252 274.515 65.8899C275.138 66.1306 275.654 66.4191 276.062 66.7556C276.493 67.092 276.817 67.4164 277.033 67.7286L276.745 67.2243C276.722 66.6483 276.914 66.2165 277.323 65.9289C277.755 65.6174 278.427 65.4621 279.339 65.4631C280.203 65.4641 280.815 65.5967 281.175 65.8611C281.558 66.1255 281.786 66.4738 281.858 66.9059C281.953 67.338 282.001 67.794 282 68.274L281.987 80.694C281.986 81.15 281.938 81.594 281.841 82.0259C281.769 82.4578 281.54 82.8055 281.156 83.0691C280.796 83.3087 280.172 83.428 279.284 83.4271ZM273.025 78.0563C273.649 78.057 274.214 77.9016 274.718 77.5901C275.246 77.2547 275.655 76.8111 275.943 76.2595C276.256 75.7078 276.413 75.096 276.413 74.424C276.414 73.728 276.259 73.1158 275.947 72.5875C275.636 72.0351 275.216 71.6027 274.689 71.2901C274.161 70.9535 273.585 70.7849 272.961 70.7842C272.265 70.7835 271.641 70.9508 271.089 71.2862C270.56 71.6216 270.128 72.0651 269.791 72.6168C269.479 73.1684 269.322 73.7923 269.321 74.4883C269.321 75.1363 269.476 75.7364 269.787 76.2888C270.123 76.8171 270.566 77.2496 271.118 77.5862C271.694 77.8988 272.329 78.0555 273.025 78.0563ZM291.793 83.4766C290.809 83.4756 289.933 83.4146 289.165 83.2938C288.421 83.197 287.773 83.0043 287.222 82.7157C286.694 82.4271 286.262 82.0306 285.927 81.5263C285.591 81.0219 285.34 80.3736 285.173 79.5815C285.03 78.7653 284.959 77.7692 284.96 76.5932L284.978 59.9612C284.979 59.4812 285.015 59.0373 285.088 58.6294C285.184 58.2215 285.424 57.8857 285.809 57.6221C286.193 57.3586 286.817 57.2272 287.681 57.2282C288.545 57.2291 289.157 57.3618 289.517 57.6262C289.9 57.8906 290.14 58.2268 290.236 58.6349C290.331 59.043 290.379 59.4871 290.378 59.9671L290.36 76.3471C290.36 76.7311 290.372 77.0551 290.395 77.3191C290.443 77.5592 290.515 77.7513 290.611 77.8954C290.731 78.0395 290.887 78.1357 291.078 78.1839C291.27 78.2321 291.522 78.2564 291.834 78.2567C292.122 78.257 292.41 78.2933 292.698 78.3656C293.01 78.438 293.274 78.6543 293.49 79.0145C293.705 79.3747 293.813 79.9748 293.812 80.8148C293.811 81.6788 293.702 82.3027 293.486 82.6865C293.269 83.0702 293.005 83.298 292.693 83.3696C292.405 83.4413 292.105 83.477 291.793 83.4766Z" fill="white"/>
<path d="M323.176 58.3107C323.584 58.3111 323.956 58.3475 324.292 58.4199C324.628 58.4922 324.903 58.6965 325.119 59.0328C325.359 59.345 325.478 59.8972 325.477 60.6892C325.476 61.4332 325.356 61.973 325.115 62.3088C324.899 62.6445 324.611 62.8482 324.251 62.9198C323.891 62.9914 323.507 63.027 323.099 63.0266L317.303 63.0203L317.283 80.8403C317.283 81.2963 317.234 81.7282 317.138 82.1361C317.065 82.5441 316.837 82.8798 316.453 83.1434C316.093 83.383 315.468 83.5023 314.58 83.5014C313.716 83.5004 313.093 83.3797 312.709 83.1393C312.325 82.8749 312.097 82.5387 312.026 82.1306C311.954 81.6985 311.919 81.2545 311.919 80.7985L311.939 63.0145L306.071 63.0081C305.687 63.0077 305.315 62.9713 304.955 62.8989C304.595 62.8025 304.307 62.5982 304.091 62.286C303.876 61.9497 303.768 61.3976 303.769 60.6296C303.77 59.8616 303.879 59.3217 304.095 59.01C304.311 58.6742 304.6 58.4705 304.96 58.3989C305.32 58.3273 305.692 58.2917 306.076 58.2921L323.176 58.3107Z" fill="#3B0764"/>
<path d="M330.436 83.5186C329.596 83.5176 328.984 83.385 328.601 83.1206C328.241 82.8562 328.001 82.5199 327.882 82.1118C327.762 81.6797 327.703 81.2236 327.703 80.7436L327.725 61.0516C327.725 60.5956 327.773 60.1637 327.87 59.7558C327.966 59.3239 328.207 58.9761 328.591 58.7125C328.975 58.449 329.611 58.3296 330.499 58.3546L336.979 58.3616C338.707 58.3635 340.315 58.6772 341.802 59.3029C343.29 59.9285 344.597 60.8059 345.724 61.9351C346.85 63.0643 347.725 64.3853 348.347 65.898C348.97 67.4106 349.28 69.055 349.278 70.831C349.276 72.631 348.962 74.3106 348.336 75.87C347.711 77.4053 346.833 78.7483 345.704 79.8991C344.575 81.0259 343.254 81.9125 341.741 82.5588C340.253 83.2052 338.62 83.5274 336.844 83.5255L330.436 83.5186ZM333.178 78.0135L336.958 78.0176C338.254 78.019 339.418 77.7203 340.451 77.1214C341.484 76.4985 342.301 75.6594 342.902 74.6041C343.503 73.5487 343.804 72.337 343.806 70.969C343.807 69.601 343.509 68.3767 342.91 67.2961C342.311 66.2154 341.496 65.3745 340.465 64.7734C339.433 64.1483 338.258 63.835 336.938 63.8336L333.194 63.8295L333.178 78.0135Z" fill="#9370DB"/>
<path d="M113.941 13.75H17.6619C12.9701 13.75 9.16666 17.638 9.16666 22.434V109.274C9.16666 114.07 12.9701 117.958 17.6619 117.958H113.941C118.633 117.958 122.436 114.07 122.436 109.274V22.434C122.436 17.638 118.633 13.75 113.941 13.75Z" stroke="white" stroke-width="3" stroke-linecap="round" stroke-linejoin="round"/>
<path d="M37.058 52.8308C35.0858 54.8468 31.8415 54.8468 29.8693 52.8308L27.996 50.9158C27.1254 50.0259 27.1254 48.6034 27.996 47.7135C28.895 46.7945 30.3742 46.7956 31.2718 47.7159L31.5489 48C32.5989 49.0764 34.3293 49.0773 35.3803 48.0018L43.0171 40.1873C43.9155 39.2681 45.3942 39.2677 46.2931 40.1865C47.1641 41.0769 47.1641 42.5001 46.2931 43.3905L37.058 52.8308Z" fill="#9370DB"/>
<path d="M37.058 107.2C35.0858 109.216 31.8415 109.216 29.8693 107.2L27.996 105.285C27.1254 104.395 27.1254 102.973 27.996 102.083C28.895 101.164 30.3742 101.165 31.2718 102.085L31.5489 102.369C32.5989 103.446 34.3293 103.447 35.3803 102.371L43.0171 94.5568C43.9155 93.6376 45.3942 93.6372 46.2931 94.556C47.1641 95.4464 47.1641 96.8695 46.2931 97.7599L37.058 107.2Z" fill="#9370DB"/>
<path d="M37.058 80.0155C35.0858 82.0315 31.8415 82.0315 29.8693 80.0155L27.996 78.1005C27.1254 77.2106 27.1254 75.7881 27.996 74.8982C28.895 73.9792 30.3742 73.9803 31.2718 74.9006L31.5489 75.1847C32.5989 76.2612 34.3293 76.262 35.3803 75.1866L43.0171 67.3721C43.9155 66.4528 45.3942 66.4524 46.2931 67.3713C47.1641 68.2616 47.1641 69.6848 46.2931 70.5752L37.058 80.0155Z" fill="#9370DB"/>
<line x1="56.6349" y1="74.258" x2="102.635" y2="74.258" stroke="white"/>
<path d="M56.6349 101.943H102.635" stroke="white"/>
<path d="M9.06158 31.338H122.241" stroke="white" stroke-width="3"/>
<path d="M57 48H103" stroke="white"/>
<rect x="67" y="20" width="50" height="6" rx="2" fill="#9370DB"/>
<rect x="13.5" y="20.5" width="49" height="5" rx="1.5" stroke="white"/>
</svg>
