<svg width="393" height="120" viewBox="0 0 393 120" fill="none" xmlns="http://www.w3.org/2000/svg">
<path d="M155.254 83.3286C154.582 83.3279 154.09 83.2313 153.779 83.039C153.467 82.8466 153.275 82.5824 153.204 82.2464C153.132 81.8863 153.096 81.5142 153.097 81.1302L153.119 60.3583C153.12 59.9743 153.156 59.6263 153.228 59.3144C153.325 58.9785 153.529 58.7147 153.841 58.523C154.154 58.3074 154.646 58.1999 155.318 58.2006L162.95 58.2089C164.006 58.2101 165.037 58.3912 166.045 58.7523C167.053 59.1134 167.952 59.6543 168.743 60.3752C169.558 61.0961 170.194 61.9848 170.648 63.0413C171.127 64.0978 171.366 65.334 171.364 66.75C171.363 68.142 171.122 69.3658 170.64 70.4213C170.183 71.4528 169.546 72.3281 168.73 73.0472C167.913 73.7663 167 74.3053 165.992 74.6642C165.007 75.0232 163.975 75.202 162.895 75.2009L157.459 75.195L157.453 81.171C157.452 81.555 157.404 81.9149 157.308 82.2508C157.235 82.5867 157.043 82.8505 156.731 83.0422C156.442 83.2339 155.95 83.3293 155.254 83.3286ZM157.464 70.803L162.936 70.8089C163.68 70.8097 164.352 70.6664 164.952 70.3791C165.577 70.0678 166.081 69.6123 166.466 69.0127C166.851 68.3892 167.043 67.6094 167.044 66.6734C167.045 65.8334 166.866 65.1132 166.507 64.5128C166.171 63.8884 165.692 63.4079 165.068 63.0712C164.469 62.7346 163.749 62.5658 162.909 62.5649L157.473 62.559L157.464 70.803ZM182.997 83.6107C181.437 83.609 180.069 83.3555 178.894 82.8502C177.742 82.345 176.771 81.6599 175.98 80.7951C175.213 79.9062 174.626 78.9216 174.219 77.8411C173.836 76.7367 173.646 75.5965 173.647 74.4205C173.649 72.6925 174.046 71.157 174.84 69.8138C175.633 68.4707 176.726 67.4159 178.119 66.6494C179.536 65.8829 181.156 65.5007 182.98 65.5026C184.276 65.504 185.416 65.7093 186.4 66.1183C187.383 66.5274 188.199 67.0683 188.846 67.741C189.517 68.3897 190.021 69.1103 190.356 69.9026C190.715 70.695 190.894 71.4632 190.893 72.2072C190.892 73.4792 190.579 74.4029 189.954 74.9782C189.354 75.5536 188.597 75.8407 187.685 75.8397L178.181 75.8294C178.204 76.6455 178.456 77.3537 178.935 77.9543C179.438 78.5548 180.062 79.0235 180.805 79.3603C181.573 79.6731 182.353 79.83 183.145 79.8308C183.745 79.8315 184.273 79.7961 184.729 79.7245C185.209 79.6531 185.617 79.5695 185.953 79.4739C186.289 79.3542 186.578 79.2345 186.818 79.1148C187.082 78.9951 187.322 78.8874 187.538 78.7916C187.754 78.6958 187.958 78.636 188.15 78.6123C188.414 78.5885 188.678 78.6488 188.942 78.7931C189.206 78.9374 189.422 79.1896 189.589 79.5498C189.733 79.79 189.829 80.0181 189.877 80.2341C189.948 80.4262 189.984 80.6182 189.984 80.8102C189.983 81.2902 189.695 81.7459 189.118 82.1773C188.542 82.5847 187.726 82.9198 186.669 83.1827C185.637 83.4695 184.413 83.6122 182.997 83.6107ZM178.184 73.2734L185.564 73.2814C185.972 73.2819 186.284 73.2222 186.5 73.1025C186.716 72.9587 186.825 72.6708 186.825 72.2388C186.826 71.6868 186.658 71.1946 186.323 70.7623C185.987 70.3059 185.532 69.9574 184.956 69.7168C184.38 69.4522 183.708 69.3194 182.94 69.3186C182.052 69.3176 181.248 69.4968 180.528 69.856C179.807 70.1912 179.231 70.6586 178.798 71.2581C178.39 71.8577 178.185 72.5294 178.184 73.2734ZM195.959 83.4087C195.311 83.408 194.831 83.2995 194.52 83.0832C194.232 82.8909 194.052 82.6267 193.981 82.2906C193.909 81.9545 193.873 81.5825 193.874 81.1745L193.888 67.8185C193.889 67.3865 193.925 67.0145 193.997 66.7026C194.07 66.3667 194.25 66.1149 194.538 65.9472C194.85 65.7555 195.343 65.66 196.015 65.6608C196.663 65.6615 197.13 65.746 197.418 65.9143C197.73 66.0826 197.922 66.2988 197.994 66.5629C198.089 66.803 198.137 67.0431 198.137 67.2831L197.848 67.9308C197.968 67.7389 198.137 67.5111 198.353 67.2473C198.569 66.9595 198.857 66.6839 199.218 66.4202C199.578 66.1326 200.01 65.9051 200.515 65.7377C201.019 65.5462 201.619 65.4509 202.315 65.4516C202.603 65.4519 202.903 65.4882 203.215 65.5606C203.551 65.6089 203.875 65.6933 204.186 65.8136C204.522 65.91 204.822 66.0423 205.086 66.2106C205.35 66.3789 205.554 66.5831 205.697 66.8233C205.841 67.0394 205.913 67.2915 205.913 67.5795C205.912 68.3475 205.719 68.9953 205.334 69.5229C204.95 70.0505 204.494 70.314 203.966 70.3134C203.606 70.313 203.342 70.2767 203.174 70.2045C203.006 70.1324 202.862 70.0482 202.742 69.9521C202.646 69.856 202.49 69.7718 202.274 69.6996C202.082 69.6274 201.77 69.591 201.338 69.5906C200.978 69.5902 200.606 69.6498 200.222 69.7693C199.862 69.8889 199.526 70.0686 199.214 70.3082C198.901 70.5479 198.649 70.8596 198.457 71.2434C198.264 71.6032 198.168 72.0231 198.167 72.5031L198.158 81.2511C198.157 81.6591 198.121 82.0311 198.048 82.367C197.976 82.6789 197.784 82.9307 197.472 83.1224C197.159 83.314 196.655 83.4095 195.959 83.4087ZM214.018 83.6443C213.394 83.6436 212.735 83.5709 212.039 83.4262C211.343 83.3054 210.671 83.1247 210.023 82.884C209.376 82.6193 208.812 82.3187 208.332 81.9821C207.877 81.6216 207.589 81.2253 207.47 80.7932C207.374 80.5531 207.338 80.3251 207.362 80.1091C207.387 79.8691 207.459 79.6292 207.579 79.3893C207.699 79.1255 207.88 78.8616 208.12 78.5979C208.336 78.3341 208.552 78.1904 208.768 78.1666C209.008 78.1189 209.308 78.1912 209.668 78.3836C209.98 78.5039 210.316 78.6603 210.676 78.8527C211.059 79.0451 211.443 79.2375 211.827 79.4299C212.235 79.6224 212.643 79.7788 213.05 79.8993C213.482 80.0197 213.902 80.0802 214.31 80.0806C215.198 80.0816 215.906 79.9384 216.435 79.6509C216.963 79.3395 217.228 78.9078 217.228 78.3558C217.229 78.0438 217.145 77.7677 216.977 77.5275C216.809 77.2873 216.582 77.0951 216.294 76.9508C216.03 76.7825 215.706 76.6381 215.322 76.5177C214.962 76.3733 214.566 76.2529 214.135 76.1564C213.727 76.036 213.295 75.9035 212.839 75.759C212.239 75.5904 211.639 75.3857 211.04 75.1451C210.44 74.9044 209.9 74.5918 209.421 74.2073C208.965 73.8228 208.594 73.3424 208.306 72.7661C208.019 72.1898 207.876 71.4696 207.877 70.6056C207.878 69.5256 208.131 68.6139 208.636 67.8705C209.164 67.103 209.921 66.5159 210.905 66.1089C211.89 65.702 213.078 65.4993 214.47 65.5008C214.95 65.5013 215.406 65.5378 215.838 65.6103C216.294 65.6828 216.726 65.7912 217.134 65.9357C217.566 66.0561 217.973 66.2126 218.357 66.405C218.765 66.5974 219.149 66.8139 219.508 67.0543C220.108 67.3909 220.42 67.7872 220.443 68.2433C220.467 68.6753 220.298 69.1431 219.938 69.6467C219.673 69.9824 219.409 70.2221 219.145 70.3659C218.881 70.4856 218.605 70.4853 218.317 70.365C217.933 70.1725 217.513 69.9681 217.058 69.7516C216.626 69.5111 216.17 69.3066 215.69 69.1381C215.234 68.9696 214.754 68.8851 214.25 68.8846C213.77 68.884 213.338 68.9556 212.954 69.0991C212.57 69.2427 212.282 69.4464 212.09 69.7102C211.897 69.974 211.801 70.2859 211.801 70.6459C211.8 70.9819 211.896 71.258 212.088 71.4742C212.279 71.6904 212.531 71.8707 212.843 72.015C213.155 72.1594 213.527 72.2918 213.959 72.4122C214.391 72.5087 214.846 72.6052 215.326 72.7017C215.998 72.8464 216.682 73.0272 217.378 73.2439C218.073 73.4607 218.709 73.7614 219.285 74.146C219.884 74.5307 220.364 75.0472 220.723 75.6956C221.082 76.32 221.261 77.1362 221.26 78.1442C221.259 79.8962 220.609 81.2515 219.312 82.21C218.039 83.1687 216.274 83.6468 214.018 83.6443ZM232.666 83.6645C231.514 83.6633 230.386 83.4461 229.283 83.0129C228.203 82.5557 227.22 81.9186 226.333 81.1017C225.47 80.2847 224.775 79.324 224.248 78.2194C223.745 77.1149 223.494 75.9026 223.496 74.5826C223.497 73.3106 223.738 72.1228 224.22 71.0194C224.701 69.9159 225.362 68.9446 226.203 68.1055C227.044 67.2664 228.004 66.6195 229.085 66.1646C230.189 65.6858 231.366 65.4471 232.614 65.4485C234.294 65.4503 235.817 65.8599 237.184 66.6774C238.551 67.4709 239.642 68.5521 240.457 69.921C241.271 71.2899 241.678 72.8383 241.676 74.5663C241.674 75.9343 241.421 77.182 240.916 78.3095C240.41 79.4129 239.725 80.3722 238.861 81.1872C237.996 81.9783 237.023 82.5893 235.943 83.0201C234.886 83.4509 233.794 83.6658 232.666 83.6645ZM232.598 79.4165C233.39 79.4173 234.147 79.2261 234.867 78.8429C235.612 78.4357 236.212 77.8604 236.669 77.1169C237.15 76.3734 237.391 75.4976 237.392 74.4897C237.393 73.5537 237.178 72.7254 236.747 72.0049C236.339 71.2845 235.776 70.7199 235.056 70.3111C234.337 69.9023 233.509 69.6974 232.573 69.6964C231.685 69.6955 230.881 69.9106 230.16 70.3418C229.44 70.749 228.863 71.3244 228.43 72.0679C228.022 72.7875 227.817 73.6033 227.816 74.5153C227.815 75.5233 228.042 76.3995 228.497 77.144C228.952 77.8645 229.54 78.4291 230.259 78.8379C231.003 79.2227 231.782 79.4156 232.598 79.4165ZM246.62 83.4277C245.972 83.427 245.492 83.3184 245.18 83.1021C244.892 82.9098 244.712 82.6576 244.641 82.3455C244.569 82.0094 244.533 81.6374 244.534 81.2294L244.548 67.7654C244.549 67.3814 244.585 67.0334 244.658 66.7215C244.73 66.4096 244.922 66.1698 245.234 66.0021C245.547 65.8105 246.027 65.715 246.675 65.7157C247.251 65.7163 247.683 65.7888 247.97 65.9331C248.258 66.0774 248.45 66.2576 248.546 66.4737C248.642 66.6898 248.689 66.9059 248.689 67.1219C248.713 67.3379 248.737 67.5059 248.761 67.626L248.615 68.7778C248.76 68.394 249 68.0222 249.337 67.6626C249.673 67.303 250.081 66.9794 250.562 66.6919C251.042 66.3804 251.558 66.141 252.11 65.9736C252.687 65.7822 253.275 65.6869 253.875 65.6875C255.003 65.6887 256.011 65.8938 256.898 66.3028C257.786 66.7118 258.541 67.2886 259.164 68.0333C259.811 68.778 260.302 69.6665 260.637 70.6989C260.972 71.7072 261.139 72.8474 261.138 74.1194L261.13 81.2834C261.129 81.6914 261.081 82.0633 260.985 82.3992C260.912 82.7112 260.732 82.963 260.444 83.1547C260.156 83.3463 259.663 83.4418 258.967 83.4411C258.295 83.4403 257.804 83.3318 257.492 83.1155C257.18 82.9231 256.988 82.6709 256.917 82.3588C256.845 82.0227 256.809 81.6507 256.81 81.2427L256.818 74.0787C256.819 73.2147 256.663 72.4705 256.352 71.8462C256.065 71.2219 255.633 70.7414 255.058 70.4048C254.506 70.0682 253.798 69.8994 252.934 69.8985C252.094 69.8976 251.362 70.0768 250.738 70.4361C250.113 70.7714 249.633 71.2509 249.296 71.8746C248.959 72.4982 248.791 73.23 248.79 74.07L248.782 81.27C248.781 81.678 248.745 82.05 248.673 82.3859C248.6 82.6978 248.408 82.9496 248.096 83.1413C247.808 83.333 247.316 83.4284 246.62 83.4277ZM279.4 83.4272C278.704 83.4265 278.188 83.2939 277.852 83.0295C277.517 82.7652 277.349 82.405 277.35 81.949L277.603 80.7613C277.411 81.0731 277.086 81.4447 276.63 81.8762C276.173 82.2837 275.573 82.6551 274.829 82.9903C274.084 83.3014 273.184 83.4565 272.128 83.4553C271 83.4541 269.932 83.2249 268.925 82.7678C267.941 82.2868 267.066 81.6378 266.299 80.821C265.556 79.9802 264.957 79.0315 264.502 77.9751C264.071 76.8946 263.856 75.7423 263.858 74.5183C263.859 73.3424 264.076 72.2386 264.509 71.2071C264.966 70.1515 265.579 69.2162 266.348 68.401C267.117 67.5859 267.994 66.9508 268.978 66.4959C269.987 66.017 271.043 65.7781 272.147 65.7793C273.131 65.7804 273.959 65.9133 274.631 66.178C275.326 66.4428 275.914 66.7794 276.394 67.1879C276.873 67.5725 277.269 67.9809 277.58 68.4132L277.365 67.369C277.366 66.841 277.534 66.4452 277.871 66.1815C278.207 65.8939 278.735 65.7505 279.455 65.7513C280.127 65.752 280.607 65.8605 280.895 66.0768C281.183 66.2691 281.362 66.5453 281.434 66.9054C281.506 67.2415 281.541 67.6255 281.541 68.0575L281.526 81.2335C281.526 81.6415 281.49 82.0135 281.417 82.3494C281.345 82.6853 281.153 82.9491 280.84 83.1408C280.552 83.3325 280.072 83.4279 279.4 83.4272ZM272.781 79.244C273.597 79.2449 274.329 79.0417 274.977 78.6344C275.626 78.2271 276.142 77.6757 276.527 76.9801C276.936 76.2605 277.141 75.4688 277.142 74.6048C277.143 73.6688 276.94 72.8525 276.532 72.1561C276.125 71.4597 275.586 70.9191 274.914 70.5343C274.266 70.1256 273.535 69.9208 272.719 69.92C271.831 69.919 271.038 70.1341 270.342 70.5654C269.646 70.9726 269.093 71.536 268.684 72.2556C268.299 72.9512 268.107 73.743 268.106 74.631C268.105 75.495 268.308 76.2752 268.715 76.9716C269.122 77.6681 269.674 78.2207 270.369 78.6294C271.089 79.0382 271.893 79.2431 272.781 79.244ZM291.328 83.5121C290.44 83.5112 289.648 83.4503 288.952 83.3296C288.28 83.2088 287.693 83.0042 287.189 82.7157C286.709 82.4271 286.314 82.0427 286.002 81.5624C285.691 81.058 285.451 80.4458 285.284 79.7256C285.141 79.0054 285.07 78.1414 285.071 77.1334L285.09 59.7814C285.09 59.3734 285.127 59.0134 285.199 58.7015C285.295 58.3656 285.488 58.1018 285.776 57.9101C286.088 57.6944 286.58 57.587 287.252 57.5877C287.924 57.5884 288.404 57.685 288.692 57.8773C289.004 58.0696 289.195 58.3338 289.267 58.6699C289.363 58.982 289.41 59.342 289.41 59.75L289.391 76.958C289.391 77.414 289.414 77.7981 289.462 78.1101C289.534 78.3982 289.641 78.6383 289.785 78.8305C289.953 78.9987 290.157 79.1189 290.397 79.1911C290.661 79.2634 290.973 79.2998 291.333 79.3001C291.645 79.3005 291.921 79.3368 292.161 79.409C292.424 79.4813 292.628 79.6616 292.772 79.9497C292.94 80.2379 293.023 80.706 293.022 81.354C293.022 82.026 292.937 82.5179 292.769 82.8297C292.624 83.1415 292.42 83.3333 292.156 83.405C291.892 83.4768 291.616 83.5125 291.328 83.5121Z" fill="white"/>
<path d="M323.362 58.3469C323.722 58.3473 324.034 58.3836 324.298 58.4559C324.585 58.5282 324.813 58.7084 324.981 58.9966C325.149 59.2608 325.232 59.6929 325.232 60.2929C325.231 60.8929 325.146 61.3368 324.978 61.6246C324.81 61.8884 324.582 62.0562 324.294 62.1279C324.005 62.1756 323.681 62.1992 323.321 62.1988L316.697 62.1916L316.677 81.3796C316.676 81.7876 316.628 82.1596 316.531 82.4955C316.459 82.8074 316.267 83.0592 315.955 83.2508C315.666 83.4425 315.174 83.538 314.478 83.5372C313.83 83.5365 313.35 83.428 313.039 83.2117C312.727 83.0193 312.535 82.7671 312.463 82.4551C312.392 82.119 312.356 81.7469 312.357 81.3389L312.377 62.187L305.681 62.1797C305.345 62.1793 305.033 62.143 304.746 62.0707C304.458 61.9984 304.218 61.8301 304.026 61.5659C303.858 61.3017 303.775 60.8696 303.776 60.2696C303.776 59.6696 303.861 59.2377 304.029 58.9739C304.197 58.6861 304.425 58.5063 304.714 58.4346C305.026 58.363 305.35 58.3273 305.686 58.3277L323.362 58.3469Z" fill="#3B0764"/>
<path d="M330.363 83.5185C329.739 83.5178 329.271 83.4093 328.96 83.193C328.648 83.0006 328.444 82.7364 328.349 82.4003C328.253 82.0642 328.205 81.7041 328.206 81.3201L328.228 60.5121C328.229 60.1281 328.265 59.7802 328.337 59.4683C328.434 59.1324 328.638 58.8686 328.95 58.6769C329.262 58.4613 329.755 58.3538 330.427 58.3545L337.195 58.3979C338.947 58.3998 340.554 58.7015 342.018 59.3031C343.505 59.9047 344.788 60.7581 345.867 61.8633C346.946 62.9684 347.772 64.2893 348.347 65.826C348.945 67.3386 349.243 69.0069 349.241 70.8309C349.239 72.7029 348.937 74.4186 348.336 75.978C347.734 77.5373 346.892 78.8804 345.811 80.0072C344.73 81.1341 343.445 82.0087 341.956 82.631C340.492 83.2295 338.859 83.5277 337.059 83.5257L330.363 83.5185ZM332.564 79.1649L337.172 79.1699C338.708 79.1715 340.052 78.837 341.205 78.1662C342.358 77.4715 343.247 76.5124 343.872 75.2891C344.522 74.0658 344.847 72.6382 344.849 71.0062C344.851 69.3502 344.528 67.9098 343.882 66.6851C343.259 65.4364 342.36 64.4755 341.185 63.8022C340.033 63.1049 338.69 62.7555 337.154 62.7538L332.582 62.7489L332.564 79.1649Z" fill="#9370DB"/>
<path d="M113.941 13.75H17.6619C12.9701 13.75 9.16666 17.638 9.16666 22.434V109.274C9.16666 114.07 12.9701 117.958 17.6619 117.958H113.941C118.633 117.958 122.436 114.07 122.436 109.274V22.434C122.436 17.638 118.633 13.75 113.941 13.75Z" stroke="white" stroke-width="3" stroke-linecap="round" stroke-linejoin="round"/>
<path d="M37.058 52.8308C35.0858 54.8468 31.8415 54.8468 29.8693 52.8308L27.996 50.9158C27.1254 50.0259 27.1254 48.6034 27.996 47.7135C28.895 46.7945 30.3742 46.7956 31.2718 47.7159L31.5489 48C32.5989 49.0764 34.3293 49.0773 35.3803 48.0018L43.0171 40.1873C43.9155 39.2681 45.3942 39.2677 46.2931 40.1865C47.1641 41.0769 47.1641 42.5001 46.2931 43.3905L37.058 52.8308Z" fill="#3B0764"/>
<path d="M37.058 107.2C35.0858 109.216 31.8415 109.216 29.8693 107.2L27.996 105.285C27.1254 104.395 27.1254 102.973 27.996 102.083C28.895 101.164 30.3742 101.165 31.2718 102.085L31.5489 102.369C32.5989 103.446 34.3293 103.447 35.3803 102.371L43.0171 94.5568C43.9155 93.6376 45.3942 93.6372 46.2931 94.556C47.1641 95.4464 47.1641 96.8695 46.2931 97.7599L37.058 107.2Z" fill="#3B0764"/>
<path d="M37.058 80.0155C35.0858 82.0315 31.8415 82.0315 29.8693 80.0155L27.996 78.1005C27.1254 77.2106 27.1254 75.7881 27.996 74.8982C28.895 73.9792 30.3742 73.9803 31.2718 74.9006L31.5489 75.1847C32.5989 76.2612 34.3293 76.262 35.3803 75.1866L43.0171 67.3721C43.9155 66.4528 45.3942 66.4524 46.2931 67.3713C47.1641 68.2616 47.1641 69.6848 46.2931 70.5752L37.058 80.0155Z" fill="#3B0764"/>
<line x1="56.6349" y1="74.258" x2="102.635" y2="74.258" stroke="white"/>
<path d="M56.6349 101.943H102.635" stroke="white"/>
<path d="M9.06158 31.338H122.241" stroke="white" stroke-width="3"/>
<path d="M57 48H103" stroke="white"/>
</svg>
